
<svg aria-hidden="true" style="position: absolute; width: 0; height: 0; overflow: hidden;" version="1.1" xmlns="http://www.w3.org/2000/svg" xmlns:xlink="http://www.w3.org/1999/xlink">

<defs>

<symbol id="chevron-up" viewBox="0 0 32 32">
<path fill="none"  stroke-linejoin="round" stroke-linecap="round" stroke-miterlimit="4" stroke-width="3.2" d="M8 20l8-8 8 8"></path>
</symbol>

<symbol id="chevron-down" viewBox="0 0 32 32">
<path fill="none"  stroke-linejoin="round" stroke-linecap="round" stroke-miterlimit="4" stroke-width="3.2" d="M8 12l8 8 8-8"></path>
</symbol>

<symbol id="chevron-right" viewBox="0 0 32 32">
<path fill="none" stroke="" stroke-linejoin="round" stroke-linecap="round" stroke-miterlimit="4" stroke-width="3.5556" d="M12 24l8-8-8-8"></path>
</symbol>

<symbol id="chevron-left" viewBox="0 0 32 32">
<path fill="none" stroke="#323f47" stroke-linejoin="round" stroke-linecap="round" stroke-miterlimit="4" stroke-width="3.5556" d="M20 24l-8-8 8-8"></path>
</symbol>

<symbol id="edit" viewBox="0 0 14 14">
<path fill="none" d="M9.9165 1.74997C10.0697 1.59676 10.2516 1.47523 10.4518 1.39232C10.652 1.3094 10.8665 1.26672 11.0832 1.26672C11.2998 1.26672 11.5144 1.3094 11.7146 1.39232C11.9147 1.47523 12.0966 1.59676 12.2498 1.74997C12.403 1.90318 12.5246 2.08507 12.6075 2.28524C12.6904 2.48542 12.7331 2.69997 12.7331 2.91664C12.7331 3.13331 12.6904 3.34786 12.6075 3.54803C12.5246 3.74821 12.403 3.9301 12.2498 4.08331L4.37484 11.9583L1.1665 12.8333L2.0415 9.62497L9.9165 1.74997Z" stroke-linecap="round" stroke-linejoin="round" />
</symbol>

<symbol id="eye" viewBox="0 0 32 32">
<path fill="none" stroke="#323f47" stroke-linejoin="round" stroke-linecap="round" stroke-miterlimit="4" stroke-width="2.88" d="M1.333 16c0 0 5.333-10.667 14.667-10.667s14.667 10.667 14.667 10.667c0 0-5.333 10.667-14.667 10.667s-14.667-10.667-14.667-10.667z"></path>
<path fill="none" stroke="#323f47" stroke-linejoin="round" stroke-linecap="round" stroke-miterlimit="4" stroke-width="2.88" d="M16 20c2.209 0 4-1.791 4-4s-1.791-4-4-4c-2.209 0-4 1.791-4 4s1.791 4 4 4z"></path>
</symbol>

<symbol id="eye-off" viewBox="0 0 32 32">
<path fill="none" stroke="#323f47" stroke-linejoin="round" stroke-linecap="round" stroke-miterlimit="4" stroke-width="2.88" d="M23.92 23.92c-2.279 1.737-5.055 2.7-7.92 2.747-9.333 0-14.667-10.667-14.667-10.667 1.659-3.091 3.959-5.791 6.747-7.92M13.2 5.653c0.918-0.215 1.857-0.322 2.8-0.32 9.333 0 14.667 10.667 14.667 10.667-0.809 1.514-1.775 2.94-2.88 4.253M18.826 18.827c-0.366 0.393-0.808 0.708-1.298 0.927s-1.020 0.336-1.557 0.346-1.071-0.089-1.569-0.291c-0.498-0.201-0.951-0.5-1.33-0.88s-0.679-0.832-0.88-1.33c-0.201-0.498-0.3-1.032-0.29-1.569s0.127-1.067 0.346-1.557 0.534-0.932 0.927-1.298"></path>
<path fill="none" stroke="#323f47" stroke-linejoin="round" stroke-linecap="round" stroke-miterlimit="4" stroke-width="2.88" d="M1.333 1.333l29.333 29.333"></path>
</symbol>

<symbol id="log-out" viewBox="0 0 32 32">
<path fill="none" stroke="inherit" stroke-linejoin="round" stroke-linecap="round" stroke-miterlimit="4" stroke-width="3" d="M12 28h-5.333c-0.707 0-1.386-0.281-1.886-0.781s-0.781-1.178-0.781-1.886v-18.667c0-0.707 0.281-1.386 0.781-1.886s1.178-0.781 1.886-0.781h5.333"></path>
<path fill="none" stroke="inherit" stroke-linejoin="round" stroke-linecap="round" stroke-miterlimit="4" stroke-width="3" d="M21.334 22.667l6.667-6.667-6.667-6.667"></path>
<path fill="none" stroke="inherit" stroke-linejoin="round" stroke-linecap="round" stroke-miterlimit="4" stroke-width="3" d="M28 16h-16"></path>
</symbol>

<symbol id="mage_water-glass-fill" viewBox="0 0 38 38">
<path d="M32.7365 6.20549C32.6216 5.8248 32.4278 5.47344 32.1679 5.175C31.9081 4.87657 31.5882 4.63797 31.2299 4.47524C30.874 4.30645 30.4851 4.2212 30.0922 4.22583H7.96951C7.57678 4.20344 7.18499 4.28397 6.83186 4.45965C6.46571 4.62419 6.14016 4.8691 5.87869 5.17669C5.61895 5.47461 5.42501 5.82538 5.30986 6.20549C5.19072 6.58265 5.154 6.98158 5.20225 7.37458L7.72353 29.1976C7.89264 30.6909 8.59983 32.0658 9.70673 33.0634C10.7887 34.0598 12.1961 34.6151 13.6578 34.6222H24.4193C25.8858 34.6159 27.2983 34.0608 28.3857 33.0634C29.4782 32.0561 30.1766 30.6839 30.3536 29.1976L31.7218 16.9299V16.7429L32.7826 7.39017C32.8421 6.99592 32.8265 6.59376 32.7365 6.20549ZM17.2091 30.1329H15.6717C14.6758 30.0767 13.7278 29.6812 12.9813 29.0105C12.2375 28.3309 11.7486 27.4111 11.5977 26.4074L11.2287 23.7262C11.1814 23.3175 11.2937 22.9063 11.5417 22.5805C11.7897 22.2548 12.1536 22.0404 12.5556 21.9834C12.9575 21.9263 13.3655 22.0311 13.6922 22.2753C14.0189 22.5194 14.2383 22.8836 14.3035 23.2898L14.6724 25.9397C14.7138 26.2294 14.8555 26.4946 15.0721 26.6879C15.287 26.8878 15.5648 27.0039 15.8562 27.0153H17.3936C17.8013 27.0153 18.1923 27.1795 18.4807 27.4718C18.769 27.7642 18.9309 28.1607 18.9309 28.5741C18.9309 28.9875 18.769 29.384 18.4807 29.6763C18.1923 29.9686 17.8013 30.1329 17.3936 30.1329H17.2091ZM29.508 15.7453C26.2642 16.3844 23.4969 16.5091 20.5605 14.1865C16.917 11.2715 12.5047 12.2068 8.26161 13.7344L7.49293 7.12517C7.4778 7.0585 7.4778 6.98921 7.49293 6.92253C7.51385 6.85704 7.55089 6.79803 7.60054 6.75107C7.63692 6.69354 7.69094 6.64972 7.75428 6.62636C7.81458 6.60903 7.87846 6.60903 7.93876 6.62636H30.2613C30.319 6.65906 30.371 6.70119 30.4151 6.75107C30.4612 6.79783 30.4919 6.85862 30.5073 6.92253C30.5308 6.99334 30.5308 7.06996 30.5073 7.14076L29.508 15.7453Z" fill="#9BE1A0" />
</symbol>

<symbol id="pie-chart-1" viewBox="0 0 32 32">
<path fill="none" stroke-linejoin="round" stroke-linecap="round" stroke-miterlimit="4" stroke-width="2.6667" d="M22.933 18.667c0.369 0 0.554 0 0.704 0.082 0.123 0.068 0.238 0.195 0.293 0.324 0.067 0.157 0.050 0.324 0.016 0.659-0.174 1.733-0.77 3.404-1.744 4.861-1.172 1.754-2.838 3.121-4.787 3.929s-4.094 1.019-6.163 0.607-3.97-1.427-5.462-2.919c-1.492-1.492-2.508-3.392-2.919-5.462s-0.2-4.214 0.607-6.163c0.807-1.949 2.175-3.615 3.929-4.787 1.457-0.974 3.128-1.57 4.861-1.744 0.334-0.034 0.502-0.050 0.659 0.016 0.13 0.055 0.257 0.17 0.324 0.293 0.082 0.15 0.082 0.334 0.082 0.704v8.533c0 0.373 0 0.56 0.073 0.703 0.064 0.125 0.166 0.227 0.291 0.291 0.143 0.073 0.329 0.073 0.703 0.073h8.533z"></path>
<path fill="none" stroke="#9be1a0" stroke-linejoin="round" stroke-linecap="round" stroke-miterlimit="4" stroke-width="2.6667" d="M18.667 3.733c0-0.369 0-0.554 0.082-0.704 0.068-0.123 0.195-0.238 0.324-0.293 0.157-0.067 0.324-0.050 0.659-0.016 2.438 0.245 4.73 1.323 6.478 3.071s2.826 4.040 3.071 6.478c0.033 0.334 0.050 0.502-0.016 0.659-0.055 0.13-0.17 0.257-0.293 0.324-0.15 0.082-0.334 0.082-0.704 0.082h-8.533c-0.373 0-0.56 0-0.703-0.073-0.125-0.064-0.227-0.166-0.291-0.291-0.073-0.143-0.073-0.329-0.073-0.703v-8.533z"></path>
</symbol>

<symbol id="pie-chart" viewBox="0 0 32 32">
<path fill="none" stroke="#323f47" stroke-linejoin="round" stroke-linecap="round" stroke-miterlimit="4" stroke-width="2.6667" d="M22.933 18.667c0.369 0 0.554 0 0.704 0.082 0.123 0.068 0.238 0.195 0.293 0.324 0.067 0.157 0.050 0.324 0.016 0.659-0.174 1.733-0.77 3.404-1.744 4.861-1.172 1.754-2.838 3.121-4.787 3.929s-4.094 1.019-6.163 0.607c-2.069-0.412-3.97-1.428-5.462-2.919s-2.508-3.392-2.919-5.461c-0.412-2.069-0.2-4.214 0.607-6.163s2.175-3.615 3.929-4.787c1.457-0.974 3.128-1.57 4.861-1.744 0.334-0.034 0.502-0.050 0.659 0.016 0.13 0.055 0.257 0.17 0.324 0.293 0.082 0.15 0.082 0.334 0.082 0.704v8.533c0 0.373 0 0.56 0.073 0.703 0.064 0.125 0.166 0.227 0.291 0.291 0.143 0.073 0.329 0.073 0.703 0.073h8.533z"></path>
<path fill="none" stroke="#9be1a0" stroke-linejoin="round" stroke-linecap="round" stroke-miterlimit="4" stroke-width="2.6667" d="M18.667 3.733c0-0.369 0-0.554 0.082-0.704 0.068-0.123 0.195-0.238 0.324-0.293 0.157-0.067 0.324-0.050 0.659-0.016 2.438 0.245 4.73 1.323 6.478 3.071s2.826 4.040 3.071 6.478c0.033 0.334 0.050 0.502-0.016 0.659-0.055 0.13-0.17 0.257-0.293 0.324-0.15 0.082-0.334 0.082-0.704 0.082h-8.533c-0.373 0-0.56 0-0.703-0.073-0.125-0.064-0.227-0.166-0.291-0.291-0.073-0.143-0.073-0.329-0.073-0.703v-8.533z"></path>
</symbol>

<symbol id="plus" viewBox="0 0 32 32">
<path fill="none"  stroke="#323f47"  stroke-linejoin="round" stroke-linecap="round" stroke-miterlimit="4" stroke-width="2.6667" d="M16 6.667v18.667"></path>
<path fill="none" stroke="#323f47"  stroke-linejoin="round" stroke-linecap="round" stroke-miterlimit="4" stroke-width="2.6667" d="M6.667 16h18.667"></path>
</symbol>

<symbol id="minus" viewBox="0 0 32 32">
<path fill="none" stroke-linejoin="round" stroke-linecap="round" stroke-miterlimit="4" stroke-width="2.6667" d="M6.667 16h18.667"></path>
</symbol>

<symbol id="settings" viewBox="0 0 32 32">
<path fill="none" stroke="inherit" stroke-linejoin="round" stroke-linecap="round" stroke-miterlimit="4" stroke-width="3" d="M16 20c2.209 0 4-1.791 4-4s-1.791-4-4-4c-2.209 0-4 1.791-4 4s1.791 4 4 4z"></path>
<path fill="none" stroke="inherit"  stroke-linejoin="round" stroke-linecap="round" stroke-miterlimit="4" stroke-width="3" d="M25.867 20c-0.178 0.402-0.231 0.848-0.152 1.281s0.285 0.832 0.592 1.146l0.080 0.080c0.248 0.248 0.445 0.542 0.579 0.865s0.203 0.671 0.203 1.021c0 0.35-0.069 0.697-0.203 1.021s-0.331 0.618-0.579 0.865c-0.248 0.248-0.542 0.445-0.866 0.579s-0.671 0.203-1.021 0.203c-0.35 0-0.697-0.069-1.021-0.203s-0.618-0.331-0.865-0.579l-0.080-0.080c-0.314-0.307-0.713-0.514-1.146-0.592s-0.879-0.025-1.281 0.152c-0.394 0.169-0.731 0.45-0.968 0.807s-0.364 0.777-0.366 1.206v0.227c0 0.707-0.281 1.386-0.781 1.886s-1.178 0.781-1.886 0.781-1.386-0.281-1.886-0.781c-0.5-0.5-0.781-1.178-0.781-1.886v-0.12c-0.010-0.441-0.153-0.869-0.41-1.228s-0.616-0.633-1.030-0.785c-0.402-0.178-0.848-0.231-1.281-0.152s-0.832 0.285-1.146 0.592l-0.080 0.080c-0.248 0.248-0.542 0.445-0.865 0.579s-0.671 0.203-1.021 0.203c-0.35 0-0.697-0.069-1.021-0.203s-0.618-0.331-0.865-0.579c-0.248-0.248-0.445-0.542-0.579-0.866s-0.203-0.671-0.203-1.021c0-0.35 0.069-0.697 0.203-1.021s0.331-0.618 0.579-0.865l0.080-0.080c0.307-0.314 0.514-0.713 0.592-1.146s0.025-0.879-0.152-1.281c-0.169-0.394-0.45-0.731-0.807-0.968s-0.777-0.364-1.206-0.366h-0.227c-0.707 0-1.386-0.281-1.886-0.781s-0.781-1.178-0.781-1.886c0-0.707 0.281-1.386 0.781-1.886s1.178-0.781 1.886-0.781h0.12c0.441-0.010 0.869-0.153 1.228-0.41s0.633-0.616 0.785-1.030c0.178-0.402 0.23-0.848 0.152-1.281s-0.285-0.832-0.592-1.146l-0.080-0.080c-0.248-0.248-0.445-0.542-0.579-0.866s-0.203-0.671-0.203-1.021c0-0.35 0.069-0.697 0.203-1.021s0.331-0.618 0.579-0.865c0.248-0.248 0.542-0.445 0.865-0.579s0.671-0.203 1.021-0.203c0.35 0 0.697 0.069 1.021 0.203s0.618 0.331 0.866 0.579l0.080 0.080c0.314 0.307 0.713 0.514 1.146 0.592s0.879 0.025 1.281-0.152h0.107c0.394-0.169 0.731-0.45 0.968-0.807s0.364-0.777 0.366-1.206v-0.227c0-0.707 0.281-1.386 0.781-1.886s1.178-0.781 1.886-0.781c0.707 0 1.386 0.281 1.886 0.781s0.781 1.178 0.781 1.886v0.12c0.002 0.429 0.129 0.848 0.366 1.206s0.573 0.638 0.968 0.807c0.402 0.177 0.848 0.23 1.281 0.152s0.832-0.285 1.146-0.592l0.080-0.080c0.248-0.248 0.542-0.445 0.865-0.579s0.671-0.203 1.021-0.203c0.35 0 0.697 0.069 1.021 0.203s0.618 0.331 0.865 0.579c0.248 0.248 0.445 0.542 0.579 0.865s0.203 0.671 0.203 1.021c0 0.35-0.069 0.697-0.203 1.021s-0.331 0.618-0.579 0.865l-0.080 0.080c-0.307 0.314-0.514 0.713-0.592 1.146s-0.025 0.879 0.152 1.281v0.107c0.169 0.394 0.45 0.731 0.807 0.968s0.777 0.364 1.206 0.366h0.227c0.707 0 1.386 0.281 1.886 0.781s0.781 1.178 0.781 1.886-0.281 1.386-0.781 1.886c-0.5 0.5-1.178 0.781-1.886 0.781h-0.12c-0.429 0.002-0.848 0.129-1.206 0.366s-0.638 0.573-0.807 0.968z"></path>
</symbol>

<symbol id="trash" viewBox="0 0 14 14">
<path fill="none" d="M5.25 1.75H8.75" stroke-linecap="round" stroke-linejoin="round" />
<path fill="none" d="M1.75 3.5H12.25M11.0833 3.5L10.6742 9.63625C10.6129 10.5569 10.5822 11.0172 10.3833 11.3663C10.2083 11.6735 9.94422 11.9206 9.62597 12.0748C9.26448 12.25 8.80314 12.25 7.88045 12.25H6.11955C5.19686 12.25 4.73552 12.25 4.37403 12.0748C4.05577 11.9206 3.79172 11.6735 3.61666 11.3663C3.41781 11.0172 3.38713 10.5569 3.32575 9.63625L2.91667 3.5" stroke-linecap="round" stroke-linejoin="round" />
</symbol>

<symbol id="upload" viewBox="0 0 32 32">
<path fill="none" stroke="#323f47" stroke-linejoin="round" stroke-linecap="round" stroke-miterlimit="4" stroke-width="2.88" d="M28 20v5.333c0 0.707-0.281 1.386-0.781 1.886s-1.178 0.781-1.886 0.781h-18.667c-0.707 0-1.386-0.281-1.886-0.781s-0.781-1.178-0.781-1.886v-5.333"></path>
<path fill="none" stroke="#323f47" stroke-linejoin="round" stroke-linecap="round" stroke-miterlimit="4" stroke-width="2.88" d="M22.666 10.667l-6.667-6.667-6.667 6.667"></path>
<path fill="none" stroke="#323f47" stroke-linejoin="round" stroke-linecap="round" stroke-miterlimit="4" stroke-width="2.88" d="M16 4v16"></path>
</symbol>

<symbol id="close" viewBox="0 0 32 32">
<path fill="none" stroke-linejoin="round" stroke-linecap="round" stroke-miterlimit="4" stroke-width="3.4286" d="M24 8l-16 16"></path>
<path fill="none" stroke-linejoin="round" stroke-linecap="round" stroke-miterlimit="4" stroke-width="3.4286" d="M8 8l16 16"></path>
</symbol>

<symbol id="plus_dark" viewBox="0 0 30 30">
<path fill="none" d="M15 9.64307V20.3574" strokeWidth="1.5" strokeLinecap="round" strokeLinejoin="round" />
<path fill="none" d="M9.64286 15H20.3571" strokeWidth="1.5" strokeLinecap="round" strokeLinejoin="round" />
</symbol>

<symbol id="water-progress-bar" viewBox="0 0 100 20">
  <text x="50%" y="50%" dominantBaseline="middle" textAnchor="middle" fill="white" fontSize="12" fontWeight="bold"></text>
</symbol>

<symbol id="exclamation" viewBox="0 0 9 32">
<path fill="#9be1a0" style="fill: var(--color1, #9be1a0)" d="M1.838 18.545c0.121 1.266 0.328 2.206 0.611 2.827 0.287 0.618 0.796 0.927 1.532 0.927 0.138 0 0.261-0.022 0.383-0.047 0.125 0.025 0.247 0.047 0.386 0.047 0.734 0 1.244-0.308 1.53-0.927 0.285-0.62 0.487-1.561 0.612-2.827l0.653-9.771c0.122-1.905 0.184-3.271 0.184-4.101 0-1.129-0.295-2.010-0.886-2.643-0.593-0.632-1.372-0.948-2.337-0.948-0.051 0-0.090 0.012-0.141 0.014-0.048-0.002-0.088-0.014-0.138-0.014-0.967 0-1.744 0.316-2.337 0.948s-0.888 1.515-0.888 2.643c0 0.83 0.060 2.196 0.184 4.101l0.651 9.77zM4.389 25.87c-0.937 0-1.733 0.295-2.394 0.886s-0.992 1.31-0.992 2.153c0 0.951 0.335 1.701 1 2.244 0.668 0.544 1.447 0.816 2.337 0.816 0.907 0 1.697-0.268 2.373-0.806 0.675-0.536 1.013-1.289 1.013-2.254 0-0.843-0.323-1.561-0.969-2.153s-1.436-0.887-2.37-0.887z"></path>
</symbol>

<symbol id="eclipse" viewBox="0 0 32 32">
<path fill="#fff" style="fill: var(--color2, #fff); stroke: var(--color3, #87d28d)" stroke="#87d28d" stroke-linejoin="miter" stroke-linecap="butt" stroke-miterlimit="4" stroke-width="4" d="M30 16c0 7.732-6.268 14-14 14s-14-6.268-14-14c0-7.732 6.268-14 14-14s14 6.268 14 14z"></path>
</symbol>

<symbol id="linkedin" viewBox="0 0 32 32">
<path d="M12.081 11.383h5.659v2.819c0.815-1.621 2.906-3.078 6.047-3.078 6.021 0 7.45 3.227 7.45 9.149v10.967h-6.095v-9.618c0-3.372-0.815-5.274-2.891-5.274-2.878 0-4.075 2.050-4.075 5.272v9.62h-6.095v-19.857zM1.629 30.981h6.095v-19.857h-6.095v19.857zM8.598 4.649c0 0.511-0.101 1.017-0.298 1.488s-0.486 0.899-0.849 1.258c-0.737 0.732-1.734 1.142-2.773 1.14-1.037-0.001-2.032-0.41-2.77-1.138-0.362-0.36-0.65-0.788-0.847-1.26s-0.298-0.977-0.299-1.488c0-1.032 0.411-2.019 1.147-2.747 0.737-0.73 1.733-1.139 2.77-1.138 1.039 0 2.036 0.41 2.772 1.138 0.734 0.728 1.147 1.716 1.147 2.747z"></path>
</symbol>

</defs>
</svg>